# xmcd CD database file
#
# Track frame offsets:
#	150
#	40120
#	54131
#	73525
#	96033
#	108864
#	120775
#	141337
#	156721
#	158814
#	182891
#
# Disc length: 2721 seconds
#
# Revision: 0
# Processed by: cddbd v1.4PL0 Copyright (c) Steve Scherf et al.
# Submitted via: CDex 1.40Beta8
#
DISCID=8b0a9f0b
DTITLE=Grandaddy - The Sophtware Slump
DYEAR=2000
DGENRE=Country
TTITLE0=He's simple, he's dumb, he's the pilot
TTITLE1=hewlett's daughter 
TTITLE2=Jed the humanoïd
TTITLE3=crystal lake
TTITLE4=Chartsengrafs
TTITLE5=Underneath The Weeping Willow
TTITLE6=Broken Household Appliance National Forest
TTITLE7=Jed's Other Poem (Beautiful Ground)
TTITLE8=Evel Knievel Interlude
TTITLE9=Miner At The Dial-A-View
TTITLE10=So You'll Aim Toward The Sky
EXTD=YEAR: 2000 ID3G: 2
EXTT0=
EXTT1=
EXTT2=
EXTT3=
EXTT4=
EXTT5=
EXTT6=
EXTT7=
EXTT8=
EXTT9=
EXTT10=
PLAYORDER=
